<?xml version="1.0" encoding="utf-8"?>
<!-- Generator: Adobe Illustrator 25.2.3, SVG Export Plug-In . SVG Version: 6.00 Build 0)  -->
<svg version="1.1" id="Layer_1" xmlns="http://www.w3.org/2000/svg" xmlns:xlink="http://www.w3.org/1999/xlink" x="0px" y="0px"
	 viewBox="0 0 124 30" style="enable-background:new 0 0 124 30;" xml:space="preserve">
<style type="text/css">
	.st0{fill-rule:evenodd;clip-rule:evenodd;fill:#FFFFFF;}
	.st1{fill:#0ECEF2;}
</style>
<path class="st0" d="M58.12,16.78c-1.43,0-16.86,0-16.86,0S40,16.67,40,17.51c0,1.29,1.76,4.31,5.5,4.31c2.77,0,4.87-2.12,4.87-2.12
	c0,0,7.06,0,8.48,0c0.32,0,0.57,0.08,0.77,0.19c-1.88,5.91-7.36,10.02-14.13,10.02C38,29.91,32.1,24.59,30.9,17.6
	c3.17-6.27,6.73-13.57,8.43-17.06C41.03,0.19,43.06,0,45.49,0c10.04,0,14.83,7.06,14.83,15.32C60.32,15.32,60.18,16.78,58.12,16.78z
	 M45.73,7.65c-4.48,0-5.87,2.83-5.87,3.48s0.71,0.7,0.71,0.7h10.65c0,0,0.71-0.01,0.71-0.7C51.92,10.44,50.21,7.65,45.73,7.65z
	 M22.22,29.18c-1.28,0.82-3.61,0.73-3.61,0.73s-2.36,0.09-3.66-0.73C13.58,28.32,0.29,1.46,0.29,1.46S-0.71,0,1.02,0
	c1.62,0,2.93,0,3.66,0c4.35,0,6.81,2.07,8.06,4.38c1.25,2.31,5.86,10.94,5.86,10.94s4.13-8.63,5.36-10.94C25.2,2.07,27.62,0,31.9,0
	c0.72,0,2.42,0,4.02,0c1.7,0,0.72,1.46,0.72,1.46S23.56,28.32,22.22,29.18z"/>
<g>
	<g>
		<path class="st1" d="M100.32,0c-2.48,0-4.53,0.19-6.25,0.54c-1.72,3.5-5.33,10.81-8.57,17.11C86.73,24.66,92.72,30,100.32,30
			c6.89,0,12.46-4.13,14.35-10.05c-0.19-0.12-0.45-0.19-0.78-0.19c-1.44,0-8.61,0-8.61,0s-2.15,2.12-4.96,2.12
			c-3.8,0-5.59-3.03-5.59-4.31c0.02-0.86,1.3-0.75,1.3-0.75s15.7,0,17.13,0c2.1,0,2.24-1.47,2.24-1.47C115.4,7.09,110.54,0,100.32,0
			z M106.17,11.87H95.34c0,0-0.73-0.05-0.73-0.7c0-0.65,1.42-3.5,5.97-3.5c4.55,0,6.3,2.8,6.3,3.5
			C106.88,11.87,106.17,11.87,106.17,11.87z M90.77,0.07h-3.61c-4.28,0-6.69,2.07-7.93,4.37c-1.22,2.3-5.76,10.9-5.76,10.9
			s-3.99-8.6-5.23-10.9c-1.24-2.3-3.7-4.37-8.05-4.37h-4.28c-0.53,0-0.81,0.14-0.93,0.33c4.75,3.4,7.24,9.19,7.28,15.2
			c3.39,6.63,6.88,13.16,7.52,13.59c1.29,0.81,3.65,0.74,3.65,0.74s2.32,0.1,3.61-0.74c1.34-0.85,14.4-27.65,14.4-27.65
			S92.46,0.07,90.77,0.07z M114.57,0.86h1.41v4.13h0.9V0.86h1.42V0.12h-3.73V0.86z M123.71,0.12h-1.17l-0.68,1.95
			c-0.19,0.57-0.36,1.17-0.49,1.7h-0.02c-0.12-0.54-0.28-1.12-0.45-1.69l-0.65-1.96h-1.19l-0.33,4.88h0.84l0.11-1.96
			c0.04-0.67,0.07-1.44,0.09-2.08h0.01c0.13,0.61,0.31,1.27,0.5,1.9l0.66,2.08h0.7l0.72-2.11c0.22-0.61,0.43-1.27,0.59-1.87h0.02
			C122.96,1.62,123,2.38,123.03,3l0.1,1.99H124L123.71,0.12z"/>
	</g>
</g>
</svg>
